solid OpenSCAD_Model
  facet normal -1 0 0
    outer loop
      vertex 0 0 0
      vertex 0 0 24
      vertex 0 64 0
    endloop
  endfacet
  facet normal -1 0 0
    outer loop
      vertex 0 64 0
      vertex 0 0 24
      vertex 0 64 24
    endloop
  endfacet
  facet normal 0 -1 0
    outer loop
      vertex 0 0 24
      vertex 0 0 0
      vertex 224 0 0
    endloop
  endfacet
  facet normal 0 -1 0
    outer loop
      vertex 168 0 24
      vertex 112 0 24
      vertex 224 0 0
    endloop
  endfacet
  facet normal 0 -1 0
    outer loop
      vertex 224 0 32
      vertex 168 0 24
      vertex 224 0 0
    endloop
  endfacet
  facet normal 0 -1 0
    outer loop
      vertex 112 0 24
      vertex 56 0 24
      vertex 224 0 0
    endloop
  endfacet
  facet normal 0 -1 0
    outer loop
      vertex 112 0 24
      vertex 112 0 32
      vertex 56 0 24
    endloop
  endfacet
  facet normal 0 -1 0
    outer loop
      vertex 56 0 24
      vertex 0 0 24
      vertex 224 0 0
    endloop
  endfacet
  facet normal 0 -1 0
    outer loop
      vertex 56 0 24
      vertex 56 0 32
      vertex 0 0 24
    endloop
  endfacet
  facet normal 0 -1 0
    outer loop
      vertex 168 0 24
      vertex 168 0 32
      vertex 112 0 24
    endloop
  endfacet
  facet normal 0 0 -1
    outer loop
      vertex 0 0 0
      vertex 0 64 0
      vertex 224 0 0
    endloop
  endfacet
  facet normal 0 0 -1
    outer loop
      vertex 224 0 0
      vertex 0 64 0
      vertex 224 64 0
    endloop
  endfacet
  facet normal 0 1 0
    outer loop
      vertex 0 64 0
      vertex 0 64 24
      vertex 224 64 0
    endloop
  endfacet
  facet normal 0 1 0
    outer loop
      vertex 112 64 32
      vertex 112 64 24
      vertex 56 64 24
    endloop
  endfacet
  facet normal 0 1 0
    outer loop
      vertex 56 64 24
      vertex 0 64 24
      vertex 56 64 32
    endloop
  endfacet
  facet normal 0 1 0
    outer loop
      vertex 112 64 24
      vertex 224 64 0
      vertex 56 64 24
    endloop
  endfacet
  facet normal 0 1 0
    outer loop
      vertex 224 64 0
      vertex 0 64 24
      vertex 56 64 24
    endloop
  endfacet
  facet normal 0 1 0
    outer loop
      vertex 168 64 32
      vertex 168 64 24
      vertex 112 64 24
    endloop
  endfacet
  facet normal 0 1 0
    outer loop
      vertex 168 64 24
      vertex 224 64 0
      vertex 112 64 24
    endloop
  endfacet
  facet normal 0 1 0
    outer loop
      vertex 224 64 32
      vertex 224 64 0
      vertex 168 64 24
    endloop
  endfacet
  facet normal -0.141421 0 0.989949
    outer loop
      vertex 56 0 32
      vertex 56 64 32
      vertex 0 64 24
    endloop
  endfacet
  facet normal -0.141421 0 0.989949
    outer loop
      vertex 0 0 24
      vertex 56 0 32
      vertex 0 64 24
    endloop
  endfacet
  facet normal 1 0 0
    outer loop
      vertex 56 0 32
      vertex 56 0 24
      vertex 56 64 24
    endloop
  endfacet
  facet normal 1 0 0
    outer loop
      vertex 56 64 32
      vertex 56 0 32
      vertex 56 64 24
    endloop
  endfacet
  facet normal -0.141421 0 0.989949
    outer loop
      vertex 112 0 32
      vertex 112 64 32
      vertex 56 64 24
    endloop
  endfacet
  facet normal -0.141421 0 0.989949
    outer loop
      vertex 56 0 24
      vertex 112 0 32
      vertex 56 64 24
    endloop
  endfacet
  facet normal 1 0 0
    outer loop
      vertex 112 0 32
      vertex 112 0 24
      vertex 112 64 24
    endloop
  endfacet
  facet normal 1 0 0
    outer loop
      vertex 112 64 32
      vertex 112 0 32
      vertex 112 64 24
    endloop
  endfacet
  facet normal -0.141421 0 0.989949
    outer loop
      vertex 168 0 32
      vertex 168 64 32
      vertex 112 64 24
    endloop
  endfacet
  facet normal -0.141421 0 0.989949
    outer loop
      vertex 112 0 24
      vertex 168 0 32
      vertex 112 64 24
    endloop
  endfacet
  facet normal 1 0 0
    outer loop
      vertex 168 0 32
      vertex 168 0 24
      vertex 168 64 24
    endloop
  endfacet
  facet normal 1 0 0
    outer loop
      vertex 168 64 32
      vertex 168 0 32
      vertex 168 64 24
    endloop
  endfacet
  facet normal -0.141421 0 0.989949
    outer loop
      vertex 224 0 32
      vertex 224 64 32
      vertex 168 64 24
    endloop
  endfacet
  facet normal -0.141421 0 0.989949
    outer loop
      vertex 168 0 24
      vertex 224 0 32
      vertex 168 64 24
    endloop
  endfacet
  facet normal 1 0 0
    outer loop
      vertex 224 0 32
      vertex 224 0 0
      vertex 224 64 0
    endloop
  endfacet
  facet normal 1 0 0
    outer loop
      vertex 224 64 32
      vertex 224 0 32
      vertex 224 64 0
    endloop
  endfacet
  facet normal 0.141421 0 -0.989949
    outer loop
      vertex 2.79257e-05 64 32
      vertex 2.79257e-05 0 32
      vertex 0 64 32
    endloop
  endfacet
  facet normal 0.141421 0 -0.989949
    outer loop
      vertex 0 64 32
      vertex 2.79257e-05 0 32
      vertex 0 0 32
    endloop
  endfacet
  facet normal 0 0 1
    outer loop
      vertex 0 64 32
      vertex 0 0 32
      vertex 2.79257e-05 0 32
    endloop
  endfacet
  facet normal 0 0 1
    outer loop
      vertex 2.79257e-05 64 32
      vertex 0 64 32
      vertex 2.79257e-05 0 32
    endloop
  endfacet
endsolid OpenSCAD_Model
